#!OML:ASF G:\JayActor3\Patient Classification 1\Patient 1\Session 6\male.ASF
:FULLY-SPECIFIED
:DEGREES
485
root 38.2375 16.1308 -0.391384 -166.767 -35.1255 -182.715
lowerback 24.2118 -1.62682 1.25967
upperback 4.07393 -2.52842 -1.48027
thorax -9.10099 -1.49735 -1.52516
lowerneck 16.4876 0.324424 0.787079
upperneck -14.0636 0.75017 0.903508
head -7.01358 0.215573 0.0874427
rclavicle -5.17834e-014 1.82882e-014
rhumerus -45.5236 -0.642508 -88.2547
rradius 62.5354
rwrist -6.08133
rhand -19.5729 2.10433
rfingers 7.12502
rthumb 6.7521 -27.768
lclavicle -5.17834e-014 1.82882e-014
lhumerus -51.5275 -2.40994 84.4139
lradius 67.9401
lwrist 32.5577
lhand -24.7871 2.57539
lfingers 7.12502
lthumb 1.71716 32.5482
rfemur -42.3455 10.841 14.2434
rtibia 22.8593
rfoot -17.4874 -12.6127
rtoes -2.70236
lfemur -22.6283 6.64804 -26.6454
ltibia 52.0995
lfoot -7.03896 5.39541
ltoes -22.1642
486
root 38.1731 16.1627 -0.528768 -166.536 -35.2161 -182.209
lowerback 24.2494 -1.63404 1.45855
upperback 3.88213 -2.44134 -1.28687
thorax -9.32983 -1.45031 -1.45043
lowerneck 15.6028 0.311685 0.788281
upperneck -14.0008 0.703434 0.85427
head -6.842 0.196446 0.0778812
rclavicle -7.7526e-015 2.40529e-014
rhumerus -45.9029 -0.249583 -88.4655
rradius 62.4989
rwrist -5.8966
rhand -19.433 2.10991
rfingers 7.12502
rthumb 6.88721 -27.7581
lclavicle -7.7526e-015 2.40529e-014
lhumerus -51.8537 -2.37208 84.6006
lradius 68.0116
lwrist 32.5624
lhand -24.3885 2.23759
lfingers 7.12502
lthumb 2.10211 32.207
rfemur -42.2417 10.889 14.7945
rtibia 22.6609
rfoot -16.851 -12.4777
rtoes -2.13938
lfemur -25.6155 7.10105 -25.9728
ltibia 56.2837
lfoot -3.94517 4.61564
ltoes -19.2173
487
root 38.1102 16.1903 -0.668277 -166.377 -35.4122 -181.662
lowerback 24.305 -1.66119 1.69659
upperback 3.67949 -2.3652 -1.06673
thorax -9.58156 -1.40961 -1.3643
lowerneck 14.5948 0.297543 0.789273
upperneck -13.7409 0.65693 0.83132
head -6.58599 0.17707 0.076785
rclavicle 1.33484e-013 -1.96797e-014
rhumerus -46.2602 0.224074 -88.6723
rradius 62.3999
rwrist -5.63564
rhand -19.2223 2.08481
rfingers 7.12502
rthumb 7.09055 -27.7764
lclavicle 1.33484e-013 -1.96797e-014
lhumerus -52.1385 -2.5092 84.8469
lradius 68.0102
lwrist 32.5106
lhand -23.7219 2.06154
lfingers 7.12502
lthumb 2.74592 32.0236
rfemur -42.1206 10.8635 15.4236
rtibia 22.4911
rfoot -16.1589 -12.5005
rtoes -1.56378
lfemur -28.6211 7.44686 -25.2124
ltibia 60.4511
lfoot -0.835427 3.97595
ltoes -15.5312
488
root 38.0479 16.2124 -0.807904 -166.311 -35.7068 -181.077
lowerback 24.4038 -1.71161 1.99035
upperback 3.47156 -2.30094 -0.822841
thorax -9.86419 -1.37716 -1.27836
lowerneck 13.4527 0.28329 0.786207
upperneck -13.2596 0.610675 0.824165
head -6.23738 0.159411 0.0811594
rclavicle 2.62396e-014 2.8625e-014
rhumerus -46.6024 0.758904 -88.8732
rradius 62.255
rwrist -5.38802
rhand -19.0413 2.03683
rfingers 7.12502
rthumb 7.26532 -27.8184
lclavicle 2.62396e-014 2.8625e-014
lhumerus -52.3808 -2.79488 85.1544
lradius 67.9467
lwrist 32.4226
lhand -23.0184 1.88084
lfingers 7.12502
lthumb 3.42532 31.8331
rfemur -41.9894 10.7528 16.1272
rtibia 22.3862
rfoot -15.3949 -12.6765
rtoes -0.919888
lfemur -31.597 7.66497 -24.3754
ltibia 64.5706
lfoot 1.924 3.46091
ltoes -11.6093
489
root 37.9852 16.2278 -0.945837 -166.352 -36.0805 -180.467
lowerback 24.5685 -1.78086 2.3452
upperback 3.26809 -2.24282 -0.56492
thorax -10.1793 -1.35172 -1.20737
lowerneck 12.1594 0.262468 0.789115
upperneck -12.537 0.556275 0.820003
head -5.78893 0.140502 0.0858445
rclavicle -2.79292e-014 -1.80894e-014
rhumerus -46.9296 1.32744 -89.0625
rradius 62.0748
rwrist -5.21767
rhand -18.9473 1.97212
rfingers 7.12502
rthumb 7.35598 -27.88
lclavicle -2.79292e-014 -1.80894e-014
lhumerus -52.575 -3.21464 85.5225
lradius 67.8316
lwrist 32.3225
lhand -22.3934 1.6654
lfingers 7.12502
lthumb 4.02884 31.6071
rfemur -41.8704 10.5473 16.8953
rtibia 22.4434
rfoot -14.6152 -12.9651
rtoes -0.230622
lfemur -34.5044 7.73989 -23.4846
ltibia 68.6296
lfoot 4.04665 3.08675
ltoes -7.98339
490
root 37.9216 16.2337 -1.08037 -166.512 -36.5153 -179.836
lowerback 24.802 -1.87228 2.76662
upperback 3.08559 -2.19522 -0.30131
thorax -10.5107 -1.33679 -1.16203
lowerneck 10.6933 0.238238 0.790958
upperneck -11.5662 0.496134 0.816695
head -5.23737 0.122058 0.0908898
rclavicle -3.97569e-016 1.17283e-014
rhumerus -47.2214 1.91813 -89.2441
rradius 61.8598
rwrist -5.1498
rhand -19.0046 1.90286
rfingers 7.12502
rthumb 7.30067 -27.9512
lclavicle -3.97569e-016 1.17283e-014
lhumerus -52.7075 -3.72379 85.9352
lradius 67.673
lwrist 32.2368
lhand -21.8775 1.45963
lfingers 7.12502
lthumb 4.52702 31.3913
rfemur -41.7841 10.2312 17.7335
rtibia 22.7483
rfoot -13.8762 -13.3061
rtoes 0.386346
lfemur -37.3301 7.67538 -22.553
ltibia 72.6259
lfoot 5.38555 2.79831
ltoes -5.15049
491
root 37.8569 16.2267 -1.21087 -166.78 -36.9846 -179.2
lowerback 25.0901 -1.97934 3.23813
upperback 2.93939 -2.15574 -0.0430748
thorax -10.833 -1.33141 -1.14629
lowerneck 9.04354 0.206307 0.794332
upperneck -10.3595 0.424545 0.814817
head -4.58739 0.100672 0.0962422
rclavicle 9.80008e-014 1.72943e-014
rhumerus -47.4508 2.51279 -89.4152
rradius 61.6069
rwrist -5.18974
rhand -19.1526 1.87538
rfingers 7.12502
rthumb 7.15787 -27.9836
lclavicle 9.80008e-014 1.72943e-014
lhumerus -52.7616 -4.29126 86.3728
lradius 67.4756
lwrist 32.2082
lhand -21.5559 1.25191
lfingers 7.12502
lthumb 4.83762 31.1767
rfemur -41.7587 9.79865 18.628
rtibia 23.3748
rfoot -13.2656 -13.5936
rtoes 0.991104
lfemur -40.0811 7.49073 -21.6046
ltibia 76.5681
lfoot 5.95807 2.52415
ltoes -3.34928
492
root 37.7916 16.2107 -1.3372 -167.136 -37.4636 -178.568
lowerback 25.4123 -2.09428 3.73581
upperback 2.83533 -2.1214 0.204775
thorax -11.1276 -1.33321 -1.15364
lowerneck 7.27884 0.167133 0.782566
upperneck -8.70236 0.339883 0.818128
head -4.15934 0.0769346 0.116352
rclavicle 4.27387e-015 -1.58034e-014
rhumerus -47.5974 3.11084 -89.5772
rradius 61.3081
rwrist -5.29974
rhand -19.409 1.87915
rfingers 7.12502
rthumb 6.91031 -27.9881
lclavicle 4.27387e-015 -1.58034e-014
lhumerus -52.7305 -4.88897 86.8168
lradius 67.2415
lwrist 32.2843
lhand -21.3716 1.09434
lfingers 7.12502
lthumb 5.01552 31.015
rfemur -41.8094 9.25052 19.5723
rtibia 24.3461
rfoot -12.8248 -13.7311
rtoes 1.45897
lfemur -42.7548 7.22183 -20.6541
ltibia 80.4248
lfoot 5.92794 2.16922
ltoes -2.65311
493
root 37.7261 16.1859 -1.46038 -167.562 -37.9232 -177.944
lowerback 25.7436 -2.20683 4.23323
upperback 2.77541 -2.08716 0.438654
thorax -11.3772 -1.33822 -1.17562
lowerneck 5.32313 0.120282 0.785053
upperneck -7.25329 0.246335 0.826945
head -3.26414 0.0465939 0.122242
rclavicle 1.94809e-014 -3.55825e-014
rhumerus -47.6418 3.70849 -89.7284
rradius 60.953
rwrist -5.45326
rhand -19.7444 1.89248
rfingers 7.12502
rthumb 6.58661 -27.9851
lclavicle 1.94809e-014 -3.55825e-014
lhumerus -52.6066 -5.49749 87.2468
lradius 66.9612
lwrist 32.5005
lhand -21.3263 0.972849
lfingers 7.12502
lthumb 5.05925 30.8925
rfemur -41.949 8.61806 20.5525
rtibia 25.635
rfoot -12.5338 -13.6589
rtoes 1.78835
lfemur -45.3701 6.90812 -19.7035
ltibia 84.1752
lfoot 5.47899 1.66558
ltoes -2.85979
494
root 37.6608 16.1533 -1.58175 -168.015 -38.3277 -177.352
lowerback 26.0567 -2.30155 4.68399
upperback 2.75611 -2.04784 0.650695
thorax -11.5691 -1.34108 -1.19751
lowerneck 3.30331 0.0748559 0.792988
upperneck -5.72835 0.15383 0.843145
head -2.36849 0.0166687 0.12768
rclavicle 6.52511e-014 -3.30976e-014
rhumerus -47.5695 4.30804 -89.8698
rradius 60.5282
rwrist -5.63025
rhand -20.0832 1.93201
rfingers 7.12502
rthumb 6.25952 -27.9555
lclavicle 6.52511e-014 -3.30976e-014
lhumerus -52.3879 -6.10913 87.643
lradius 66.6271
lwrist 32.8381
lhand -21.4294 0.877699
lfingers 7.12502
lthumb 4.95974 30.7997
rfemur -42.1745 7.95543 21.5245
rtibia 27.1512
rfoot -12.3304 -13.383
rtoes 2.0718
lfemur -47.9416 6.60117 -18.7781
ltibia 87.7829
lfoot 4.83196 0.970308
ltoes -3.44148
